<?xml version="1.0" standalone="no"?>
<!DOCTYPE svg PUBLIC "-//W3C//DTD SVG 20010904//EN"
 "http://www.w3.org/TR/2001/REC-SVG-20010904/DTD/svg10.dtd">
<svg version="1.0" xmlns="http://www.w3.org/2000/svg"
 width="1018.000000pt" height="849.000000pt" viewBox="0 0 1018.000000 849.000000"
 preserveAspectRatio="xMidYMid meet">

<g transform="translate(0.000000,849.000000) scale(0.100000,-0.100000)"
fill="#000000" stroke="none">
<path d="M7680 8145 c-8 -2 -55 -9 -105 -15 -202 -28 -458 -119 -636 -226
-636 -384 -955 -1108 -809 -1830 154 -762 791 -1322 1573 -1384 511 -40 1020
160 1383 543 254 269 410 598 459 970 28 214 12 434 -46 655 -179 683 -751
1185 -1456 1277 -98 13 -317 19 -363 10z m415 -454 c257 -58 464 -169 641
-346 193 -192 305 -395 364 -660 19 -82 23 -132 23 -270 1 -149 -2 -184 -25
-280 -60 -255 -173 -458 -353 -638 -191 -190 -430 -314 -696 -363 -123 -22
-340 -20 -464 4 -272 54 -479 164 -676 361 -257 257 -382 559 -382 926 0 157
17 265 65 409 157 468 584 817 1073 876 111 14 328 4 430 -19z"/>
<path d="M7160 7254 c-125 -70 -224 -220 -189 -286 7 -13 131 -142 277 -286
l265 -264 -278 -278 c-277 -278 -278 -279 -272 -315 10 -60 49 -124 108 -179
67 -62 120 -90 172 -90 36 -1 49 11 313 274 l275 275 267 -271 c147 -150 277
-275 290 -279 92 -27 302 163 302 275 0 33 -19 54 -270 305 -148 148 -270 274
-270 280 0 5 122 131 270 280 242 243 270 274 270 303 0 108 -173 282 -280
282 -31 0 -57 -23 -305 -270 -149 -148 -275 -270 -280 -270 -6 0 -132 122
-280 270 -303 303 -293 297 -385 244z"/>
<path d="M2290 5735 c-111 -38 -172 -75 -245 -149 -71 -72 -120 -154 -147
-248 -16 -55 -24 -1903 -9 -1958 5 -19 15 -57 22 -85 19 -75 55 -151 109 -229
34 -49 380 -402 1097 -1118 859 -858 1062 -1055 1126 -1097 71 -46 107 -60
283 -112 39 -12 199 -12 222 0 9 5 42 14 72 21 76 17 171 62 243 114 34 24
431 415 882 868 902 905 876 875 925 1048 11 41 26 91 31 110 23 79 -7 274
-61 396 -52 119 -105 175 -1177 1245 -811 809 -1082 1075 -1128 1102 -69 41
-137 67 -247 97 -76 19 -100 20 -1005 19 l-928 -1 -65 -23z m961 -909 c73 -17
134 -53 186 -109 54 -58 79 -108 93 -185 29 -163 -60 -327 -218 -400 -48 -22
-71 -27 -142 -27 -71 0 -94 5 -142 27 -32 15 -73 39 -92 53 -74 57 -136 186
-136 284 0 158 119 314 271 355 68 19 110 19 180 2z"/>
</g>
</svg>
