<?xml version="1.0" standalone="no"?>
<!DOCTYPE svg PUBLIC "-//W3C//DTD SVG 20010904//EN"
 "http://www.w3.org/TR/2001/REC-SVG-20010904/DTD/svg10.dtd">
<svg version="1.0" xmlns="http://www.w3.org/2000/svg"
 width="1018.000000pt" height="849.000000pt" viewBox="0 0 1018.000000 849.000000"
 preserveAspectRatio="xMidYMid meet">

<g transform="translate(0.000000,849.000000) scale(0.100000,-0.100000)"
fill="#000000" stroke="none">
<path d="M8360 7969 c-34 -15 -169 -144 -567 -542 l-523 -522 -232 232 c-245
244 -270 263 -356 263 -89 0 -185 -63 -217 -142 -22 -57 -21 -137 3 -190 26
-58 660 -690 714 -713 57 -23 135 -19 194 10 71 35 1264 1230 1293 1295 87
193 -116 396 -309 309z"/>
<path d="M9091 7031 c-51 -18 -107 -72 -935 -900 l-881 -881 -394 394 c-272
273 -410 404 -445 423 -157 86 -346 -30 -346 -211 0 -91 17 -110 546 -638 524
-522 542 -537 628 -538 102 0 46 -52 1104 1004 541 540 992 996 1003 1014 12
18 23 57 26 90 10 111 -62 215 -171 247 -62 19 -69 19 -135 -4z"/>
<path d="M2290 5735 c-111 -38 -172 -75 -245 -149 -71 -72 -120 -154 -147
-248 -16 -55 -24 -1903 -9 -1958 5 -19 15 -57 22 -85 19 -75 55 -151 109 -229
34 -49 380 -402 1097 -1118 859 -858 1062 -1055 1126 -1097 71 -46 107 -60
283 -112 39 -12 199 -12 222 0 9 5 42 14 72 21 76 17 171 62 243 114 34 24
431 415 882 868 902 905 876 875 925 1048 11 41 26 91 31 110 23 79 -7 274
-61 396 -52 119 -105 175 -1177 1245 -811 809 -1082 1075 -1128 1102 -69 41
-137 67 -247 97 -76 19 -100 20 -1005 19 l-928 -1 -65 -23z m961 -909 c73 -17
134 -53 186 -109 54 -58 79 -108 93 -185 29 -163 -60 -327 -218 -400 -48 -22
-71 -27 -142 -27 -71 0 -94 5 -142 27 -32 15 -73 39 -92 53 -74 57 -136 186
-136 284 0 158 119 314 271 355 68 19 110 19 180 2z"/>
</g>
</svg>
