<?xml version="1.0" standalone="no"?>
<!DOCTYPE svg PUBLIC "-//W3C//DTD SVG 20010904//EN"
 "http://www.w3.org/TR/2001/REC-SVG-20010904/DTD/svg10.dtd">
<svg version="1.0" xmlns="http://www.w3.org/2000/svg"
 width="1018.000000pt" height="849.000000pt" viewBox="0 0 1018.000000 849.000000"
 preserveAspectRatio="xMidYMid meet">

<g transform="translate(0.000000,849.000000) scale(0.100000,-0.100000)"
fill="#000000" stroke="none">
<path d="M6550 8070 c-283 -43 -497 -230 -579 -506 -21 -70 -21 -86 -21 -864
0 -776 0 -794 21 -864 73 -249 260 -431 504 -493 63 -16 127 -18 655 -18 l585
0 42 27 c53 35 77 79 77 144 0 64 -35 122 -91 150 -36 18 -73 19 -623 24
l-585 5 -48 24 c-61 30 -138 107 -169 169 l-23 47 -3 478 -3 477 1378 -2 1378
-3 5 -160 c4 -134 8 -164 24 -187 70 -104 236 -93 292 19 18 35 19 68 22 428
2 247 -1 426 -8 489 -20 177 -77 293 -205 421 -63 63 -98 90 -165 122 -166 82
-80 77 -1310 79 -602 1 -1120 -2 -1150 -6z m2299 -375 c71 -39 130 -98 161
-160 21 -43 25 -69 30 -178 3 -88 1 -132 -6 -138 -7 -5 -560 -8 -1375 -7
l-1364 3 1 130 c1 148 15 192 80 265 49 54 83 78 147 101 50 18 95 18 1162 16
l1110 -2 54 -30z"/>
<path d="M6720 6328 c-52 -36 -73 -71 -78 -131 -10 -129 105 -218 223 -173
136 53 152 240 25 307 -50 27 -128 25 -170 -3z"/>
<path d="M7414 6331 c-123 -75 -118 -244 10 -302 35 -16 68 -19 237 -19 120 0
209 4 230 11 69 23 119 94 119 168 0 41 -40 110 -78 136 -36 25 -39 25 -262
25 -203 0 -228 -2 -256 -19z"/>
<path d="M8783 6155 c-70 -42 -101 -134 -69 -208 7 -18 66 -84 130 -147 63
-63 116 -118 116 -122 0 -4 -145 -9 -322 -10 -366 -3 -373 -5 -424 -81 -53
-80 -29 -187 54 -239 36 -23 43 -23 365 -26 180 -2 327 -6 327 -10 0 -3 -56
-63 -124 -132 -133 -134 -146 -158 -132 -235 8 -40 55 -99 97 -121 33 -17 96
-18 136 -3 33 12 563 536 599 591 28 44 32 104 8 151 -22 44 -550 574 -596
598 -52 27 -114 24 -165 -6z"/>
<path d="M2290 5735 c-111 -38 -172 -75 -245 -149 -71 -72 -120 -154 -147
-248 -16 -55 -24 -1903 -9 -1958 5 -19 15 -57 22 -85 19 -75 55 -151 109 -229
34 -49 380 -402 1097 -1118 859 -858 1062 -1055 1126 -1097 71 -46 107 -60
283 -112 39 -12 199 -12 222 0 9 5 42 14 72 21 76 17 171 62 243 114 34 24
431 415 882 868 902 905 876 875 925 1048 11 41 26 91 31 110 23 79 -7 274
-61 396 -52 119 -105 175 -1177 1245 -811 809 -1082 1075 -1128 1102 -69 41
-137 67 -247 97 -76 19 -100 20 -1005 19 l-928 -1 -65 -23z m961 -909 c73 -17
134 -53 186 -109 54 -58 79 -108 93 -185 29 -163 -60 -327 -218 -400 -48 -22
-71 -27 -142 -27 -71 0 -94 5 -142 27 -32 15 -73 39 -92 53 -74 57 -136 186
-136 284 0 158 119 314 271 355 68 19 110 19 180 2z"/>
</g>
</svg>
