<?xml version="1.0" standalone="no"?>
<!DOCTYPE svg PUBLIC "-//W3C//DTD SVG 20010904//EN"
 "http://www.w3.org/TR/2001/REC-SVG-20010904/DTD/svg10.dtd">
<svg version="1.0" xmlns="http://www.w3.org/2000/svg"
 width="1018.000000pt" height="849.000000pt" viewBox="0 0 1018.000000 849.000000"
 preserveAspectRatio="xMidYMid meet">

<g transform="translate(0.000000,849.000000) scale(0.100000,-0.100000)"
fill="#000000" stroke="none">
<path d="M7440 8071 c-8 -5 -41 -11 -72 -15 -32 -3 -83 -13 -115 -22 -32 -9
-71 -19 -88 -24 -72 -19 -208 -75 -305 -127 -387 -204 -684 -554 -822 -968
-34 -103 -68 -254 -68 -305 0 -20 -5 -41 -10 -46 -12 -12 -8 -313 4 -394 26
-174 82 -365 146 -503 124 -270 345 -528 602 -705 72 -50 225 -128 327 -167
105 -41 310 -95 358 -95 17 0 35 -5 38 -10 8 -13 423 -12 431 1 3 5 21 9 40 9
48 0 225 45 319 81 44 17 93 35 109 41 54 20 192 96 262 144 586 399 867 1095
717 1773 -76 344 -218 599 -477 856 -167 167 -353 288 -564 370 -113 43 -309
95 -362 95 -21 0 -42 5 -45 10 -8 12 -403 13 -425 1z m525 -347 c138 -35 176
-48 281 -99 408 -197 691 -572 767 -1015 23 -130 21 -354 -2 -477 -62 -321
-217 -589 -460 -797 -164 -141 -353 -239 -556 -290 -268 -67 -522 -58 -780 28
-477 160 -833 572 -920 1066 -22 126 -20 379 4 505 27 139 52 211 121 350 178
359 496 617 888 721 136 36 213 43 397 38 128 -3 180 -9 260 -30z"/>
<path d="M7490 7398 c-20 -21 -20 -32 -20 -617 1 -453 4 -600 13 -612 16 -21
574 -427 613 -446 48 -24 78 -3 161 112 58 79 73 107 73 136 0 44 4 41 -245
219 -110 79 -210 153 -222 164 l-23 19 0 499 0 499 -25 24 c-23 24 -29 25
-164 25 -131 0 -142 -1 -161 -22z"/>
<path d="M2290 5735 c-111 -38 -172 -75 -245 -149 -71 -72 -120 -154 -147
-248 -16 -55 -24 -1903 -9 -1958 5 -19 15 -57 22 -85 19 -75 55 -151 109 -229
34 -49 380 -402 1097 -1118 859 -858 1062 -1055 1126 -1097 71 -46 107 -60
283 -112 39 -12 199 -12 222 0 9 5 42 14 72 21 76 17 171 62 243 114 34 24
431 415 882 868 902 905 876 875 925 1048 11 41 26 91 31 110 23 79 -7 274
-61 396 -52 119 -105 175 -1177 1245 -811 809 -1082 1075 -1128 1102 -69 41
-137 67 -247 97 -76 19 -100 20 -1005 19 l-928 -1 -65 -23z m961 -909 c73 -17
134 -53 186 -109 54 -58 79 -108 93 -185 29 -163 -60 -327 -218 -400 -48 -22
-71 -27 -142 -27 -71 0 -94 5 -142 27 -32 15 -73 39 -92 53 -74 57 -136 186
-136 284 0 158 119 314 271 355 68 19 110 19 180 2z"/>
</g>
</svg>
